REM DIRINDEX 1\6,1\2\7,1\2\8,1\2\9,1\3\10,1\3\11,1\4\12,1\4\13,1\4\14,1\5\15,1\5\16,1\5\17
REM DIRNAME folder01,folder02,folder03,folder04,folder05,folder06,folder07,folder08,folder09,folder10,folder11,folder12,folder13,folder14,folder15,folder16,folder17
TITLE ""
FILE "P2Q_t_0650-0667.mp3" MP3
  TRACK 01 AUDIO
    TITLE "10:cjc040_2953"
    INDEX 01 00:00:00
  TRACK 02 AUDIO
    TITLE "0:"
    INDEX 01 00:00:74
  TRACK 03 AUDIO
    TITLE "11:cjc040_2954"
    INDEX 01 00:01:54
  TRACK 04 AUDIO
    TITLE "0:"
    INDEX 01 00:04:11
  TRACK 05 AUDIO
    TITLE "10:cjc040_2955"
    INDEX 01 00:04:68
  TRACK 06 AUDIO
    TITLE "0:"
    INDEX 01 00:06:08
  TRACK 07 AUDIO
    TITLE "11:cjc040_2956"
    INDEX 01 00:06:53
  TRACK 08 AUDIO
    TITLE "0:"
    INDEX 01 00:09:59
  TRACK 09 AUDIO
    TITLE "10:cjc040_2957"
    INDEX 01 00:10:41
  TRACK 10 AUDIO
    TITLE "0:"
    INDEX 01 00:11:62
  TRACK 11 AUDIO
    TITLE "11:cjc040_2958"
    INDEX 01 00:12:38
  TRACK 12 AUDIO
    TITLE "0:"
    INDEX 01 00:13:53
  TRACK 13 AUDIO
    TITLE "10:cjc040_2959"
    INDEX 01 00:14:41
  TRACK 14 AUDIO
    TITLE "0:"
    INDEX 01 00:15:62
  TRACK 15 AUDIO
    TITLE "11:cjc040_2960"
    INDEX 01 00:16:42
  TRACK 16 AUDIO
    TITLE "0:"
    INDEX 01 00:17:53
  TRACK 17 AUDIO
    TITLE "10:cjc040_2961"
    INDEX 01 00:18:19
  TRACK 18 AUDIO
    TITLE "0:"
    INDEX 01 00:19:42
  TRACK 19 AUDIO
    TITLE "11:cjc040_2962"
    INDEX 01 00:20:16
  TRACK 20 AUDIO
    TITLE "0:"
    INDEX 01 00:21:47
  TRACK 21 AUDIO
    TITLE "10:cjc040_2963"
    INDEX 01 00:22:27
  TRACK 22 AUDIO
    TITLE "0:"
    INDEX 01 00:23:26
  TRACK 23 AUDIO
    TITLE "11:cjc040_2964"
    INDEX 01 00:24:16
  TRACK 24 AUDIO
    TITLE "0:"
    INDEX 01 00:26:50
  TRACK 25 AUDIO
    TITLE "10:cjc040_2965"
    INDEX 01 00:27:32
  TRACK 26 AUDIO
    TITLE "0:"
    INDEX 01 00:28:53
  TRACK 27 AUDIO
    TITLE "11:cjc040_2966"
    INDEX 01 00:29:31
  TRACK 28 AUDIO
    TITLE "0:"
    INDEX 01 00:32:00
  TRACK 29 AUDIO
    TITLE "10:cjc040_2967"
    INDEX 01 00:32:52
  TRACK 30 AUDIO
    TITLE "0:"
    INDEX 01 00:34:02
  TRACK 31 AUDIO
    TITLE "11:cjc040_2968"
    INDEX 01 00:34:59
  TRACK 32 AUDIO
    TITLE "0:"
    INDEX 01 00:37:32
  TRACK 33 AUDIO
    TITLE "10:cjc040_2969"
    INDEX 01 00:38:12
  TRACK 34 AUDIO
    TITLE "0:"
    INDEX 01 00:39:45
  TRACK 35 AUDIO
    TITLE "11:cjc040_2970"
    INDEX 01 00:40:24
  TRACK 36 AUDIO
    TITLE "0:"
    INDEX 01 00:42:68
  TRACK 37 AUDIO
    TITLE "10:cjc040_2971"
    INDEX 01 00:43:46
  TRACK 38 AUDIO
    TITLE "0:"
    INDEX 01 00:44:56
  TRACK 39 AUDIO
    TITLE "11:cjc040_2972"
    INDEX 01 00:45:39
  TRACK 40 AUDIO
    TITLE "0:"
    INDEX 01 00:46:62
  TRACK 41 AUDIO
    TITLE "10:cjc040_2973"
    INDEX 01 00:47:40
  TRACK 42 AUDIO
    TITLE "0:"
    INDEX 01 00:48:48
  TRACK 43 AUDIO
    TITLE "11:cjc040_2974"
    INDEX 01 00:49:31
  TRACK 44 AUDIO
    TITLE "0:"
    INDEX 01 00:51:71
  TRACK 45 AUDIO
    TITLE "10:cjc040_2975"
    INDEX 01 00:52:51
  TRACK 46 AUDIO
    TITLE "0:"
    INDEX 01 00:53:74
  TRACK 47 AUDIO
    TITLE "11:cjc040_2976"
    INDEX 01 00:54:54
  TRACK 48 AUDIO
    TITLE "0:"
    INDEX 01 00:57:41
  TRACK 49 AUDIO
    TITLE "10:cjc040_2977"
    INDEX 01 00:58:22
  TRACK 50 AUDIO
    TITLE "0:"
    INDEX 01 00:59:63
  TRACK 51 AUDIO
    TITLE "11:cjc040_2978"
    INDEX 01 01:00:43
  TRACK 52 AUDIO
    TITLE "0:"
    INDEX 01 01:01:60
  TRACK 53 AUDIO
    TITLE "10:cjc040_2979"
    INDEX 01 01:02:42
  TRACK 54 AUDIO
    TITLE "0:"
    INDEX 01 01:03:65
  TRACK 55 AUDIO
    TITLE "11:cjc040_2980"
    INDEX 01 01:04:45
  TRACK 56 AUDIO
    TITLE "0:"
    INDEX 01 01:08:38
  TRACK 57 AUDIO
    TITLE "10:cjc040_2981"
    INDEX 01 01:09:20
  TRACK 58 AUDIO
    TITLE "0:"
    INDEX 01 01:10:26
  TRACK 59 AUDIO
    TITLE "11:cjc040_2982"
    INDEX 01 01:11:03
  TRACK 60 AUDIO
    TITLE "0:"
    INDEX 01 01:13:26
  TRACK 61 AUDIO
    TITLE "10:cjc040_2983"
    INDEX 01 01:14:06
  TRACK 62 AUDIO
    TITLE "0:"
    INDEX 01 01:15:15
  TRACK 63 AUDIO
    TITLE "11:cjc040_2984"
    INDEX 01 01:15:74
  TRACK 64 AUDIO
    TITLE "0:"
    INDEX 01 01:18:41
  TRACK 65 AUDIO
    TITLE "10:cjc040_2985"
    INDEX 01 01:19:25
  TRACK 66 AUDIO
    TITLE "0:"
    INDEX 01 01:20:42
  TRACK 67 AUDIO
    TITLE "11:cjc040_2986"
    INDEX 01 01:21:21
  TRACK 68 AUDIO
    TITLE "0:"
    INDEX 01 01:25:02
  TRACK 69 AUDIO
    TITLE "10:cjc040_2987"
    INDEX 01 01:25:57
  TRACK 70 AUDIO
    TITLE "0:"
    INDEX 01 01:26:74
  TRACK 71 AUDIO
    TITLE "11:cjc040_2988"
    INDEX 01 01:27:53
  TRACK 72 AUDIO
    TITLE "0:"
    INDEX 01 01:29:72
